HIERARCHY
ROOT hip
{
  OFFSET 0 0 0
  CHANNELS 6 Xposition Yposition Zposition Zrotation Yrotation Xrotation
  JOINT abdomen
  {
    OFFSET 0 20.6881 -0.73152
    CHANNELS 3 Zrotation Xrotation Yrotation
    JOINT chest
    {
      OFFSET 0 11.7043 -0.48768
      CHANNELS 3 Zrotation Xrotation Yrotation
      JOINT neck
      {
        OFFSET 0 22.1894 -2.19456
        CHANNELS 3 Zrotation Xrotation Yrotation
        JOINT head
        {
          OFFSET -0.24384 7.07133 1.2192
          CHANNELS 3 Zrotation Xrotation Yrotation
          JOINT leftEye
          {
            OFFSET 4.14528 8.04674 8.04672
            CHANNELS 3 Zrotation Xrotation Yrotation
            End Site
            {
              OFFSET 1 0 0
            }
          }
          JOINT rightEye
          {
            OFFSET -3.6576 8.04674 8.04672
            CHANNELS 3 Zrotation Xrotation Yrotation
            End Site
            {
              OFFSET 1 0 0
            }
          }
        }
      }
      JOINT rCollar
      {
        OFFSET -2.68224 19.2634 -4.8768
        CHANNELS 3 Zrotation Xrotation Yrotation
        JOINT rShldr
        {
          OFFSET -8.77824 -1.95073 1.46304
          CHANNELS 3 Zrotation Xrotation Yrotation
          JOINT rForeArm
          {
            OFFSET -28.1742 -1.7115 0.48768
            CHANNELS 3 Zrotation Xrotation Yrotation
            JOINT rHand
            {
              OFFSET -22.5879 0.773209 7.07136
              CHANNELS 3 Zrotation Xrotation Yrotation
              JOINT rThumb1
              {
                OFFSET -1.2192 -0.487915 3.41376
                CHANNELS 3 Zrotation Xrotation Yrotation
                JOINT rThumb2
                {
                  OFFSET -3.37035 -0.52449 3.41376
                  CHANNELS 3 Zrotation Xrotation Yrotation
                  End Site
                  {
                    OFFSET -1.78271 -1.18214 1.43049
                  }
                }
              }
              JOINT rIndex1
              {
                OFFSET -7.75947 0.938293 5.60832
                CHANNELS 3 Zrotation Xrotation Yrotation
                JOINT rIndex2
                {
                  OFFSET -2.54057 -0.884171 1.56538
                  CHANNELS 3 Zrotation Xrotation Yrotation
                  End Site
                  {
                    OFFSET -1.62519 -0.234802 1.16502
                  }
                }
              }
              JOINT rMid1
              {
                OFFSET -8.24714 1.18213 3.41376
                CHANNELS 3 Zrotation Xrotation Yrotation
                JOINT rMid2
                {
                  OFFSET -3.10165 -0.590103 1.0647
                  CHANNELS 3 Zrotation Xrotation Yrotation
                  End Site
                  {
                    OFFSET -2.48547 -0.328903 0.83742
                  }
                }
              }
              JOINT rRing1
              {
                OFFSET -8.82822 0.546677 1.51678
                CHANNELS 3 Zrotation Xrotation Yrotation
                JOINT rRing2
                {
                  OFFSET -2.60934 -0.819778 -0.0198488
                  CHANNELS 3 Zrotation Xrotation Yrotation
                  End Site
                  {
                    OFFSET -2.33842 -0.294052 0.168128
                  }
                }
              }
              JOINT rPinky1
              {
                OFFSET -8.27202 -0.0477905 -0.4584
                CHANNELS 3 Zrotation Xrotation Yrotation
                JOINT rPinky2
                {
                  OFFSET -1.82734 -0.647385 -0.700984
                  CHANNELS 3 Zrotation Xrotation Yrotation
                  End Site
                  {
                    OFFSET -1.69225 -0.51767 -0.607171
                  }
                }
              }
            }
          }
        }
      }
      JOINT lCollar
      {
        OFFSET 2.68224 19.2634 -4.8768
        CHANNELS 3 Zrotation Xrotation Yrotation
        JOINT lShldr
        {
          OFFSET 8.77824 -1.95073 1.46304
          CHANNELS 3 Zrotation Xrotation Yrotation
          JOINT lForeArm
          {
            OFFSET 28.1742 -1.7115 0.48768
            CHANNELS 3 Zrotation Xrotation Yrotation
            JOINT lHand
            {
              OFFSET 22.5879 0.773209 7.07136
              CHANNELS 3 Zrotation Xrotation Yrotation
              JOINT lThumb1
              {
                OFFSET 1.2192 -0.487915 3.41376
                CHANNELS 3 Zrotation Xrotation Yrotation
                JOINT lThumb2
                {
                  OFFSET 3.37035 -0.52449 3.41376
                  CHANNELS 3 Zrotation Xrotation Yrotation
                  End Site
                  {
                    OFFSET 1.78271 -1.18214 1.43049
                  }
                }
              }
              JOINT lIndex1
              {
                OFFSET 7.75947 0.938293 5.60832
                CHANNELS 3 Zrotation Xrotation Yrotation
                JOINT lIndex2
                {
                  OFFSET 2.54057 -0.884171 1.56538
                  CHANNELS 3 Zrotation Xrotation Yrotation
                  End Site
                  {
                    OFFSET 1.62519 -0.234802 1.16502
                  }
                }
              }
              JOINT lMid1
              {
                OFFSET 8.24714 1.18213 3.41376
                CHANNELS 3 Zrotation Xrotation Yrotation
                JOINT lMid2
                {
                  OFFSET 3.10165 -0.590103 1.0647
                  CHANNELS 3 Zrotation Xrotation Yrotation
                  End Site
                  {
                    OFFSET 2.48547 -0.328903 0.83742
                  }
                }
              }
              JOINT lRing1
              {
                OFFSET 8.82822 0.546677 1.51678
                CHANNELS 3 Zrotation Xrotation Yrotation
                JOINT lRing2
                {
                  OFFSET 2.60934 -0.819778 -0.0198488
                  CHANNELS 3 Zrotation Xrotation Yrotation
                  End Site
                  {
                    OFFSET 2.33842 -0.294052 0.168128
                  }
                }
              }
              JOINT lPinky1
              {
                OFFSET 8.27202 -0.0477905 -0.4584
                CHANNELS 3 Zrotation Xrotation Yrotation
                JOINT lPinky2
                {
                  OFFSET 1.82734 -0.647385 -0.700984
                  CHANNELS 3 Zrotation Xrotation Yrotation
                  End Site
                  {
                    OFFSET 1.69225 -0.51767 -0.607171
                  }
                }
              }
            }
          }
        }
      }
    }
  }
  JOINT rButtock
  {
    OFFSET -8.77824 4.35084 1.2192
    CHANNELS 3 Zrotation Xrotation Yrotation
    JOINT rThigh
    {
      OFFSET 0 -1.70687 -2.19456
      CHANNELS 3 Zrotation Xrotation Yrotation
      JOINT rShin
      {
        OFFSET 0 -36.8199 0.73152
        CHANNELS 3 Zrotation Xrotation Yrotation
        JOINT rFoot
        {
          OFFSET 0.73152 -45.1104 -5.12064
          CHANNELS 3 Zrotation Xrotation Yrotation
          End Site
          {
            OFFSET -1.1221 -3.69964 12.103
          }
        }
      }
    }
  }
  JOINT lButtock
  {
    OFFSET 8.77824 4.35084 1.2192
    CHANNELS 3 Zrotation Xrotation Yrotation
    JOINT lThigh
    {
      OFFSET 0 -1.70687 -2.19456
      CHANNELS 3 Zrotation Xrotation Yrotation
      JOINT lShin
      {
        OFFSET 0 -36.8199 0.73152
        CHANNELS 3 Zrotation Xrotation Yrotation
        JOINT lFoot
        {
          OFFSET -0.73152 -45.1104 -5.12064
          CHANNELS 3 Zrotation Xrotation Yrotation
          End Site
          {
            OFFSET 1.1221 -3.69964 12.103
          }
        }
      }
    }
  }
}
MOTION
Frames:	8
Frame Time:	0.03333
0.0 0.0 0.0 0.0 0.0 0.0 0.0 0.0 0.0 0.0 0.0 0.0 0.0 0.0 0.0 0.0 0.0 0.0 0.0 0.0 0.0 0.0 0.0 0.0 0.0 0.0 0.0 0.0 0.0 0.0 0.0 0.0 0.0 0.0 0.0 0.0 0.0 0.0 0.0 0.0 0.0 0.0 0.0 0.0 0.0 0.0 0.0 0.0 0.0 0.0 0.0 0.0 0.0 0.0 0.0 0.0 0.0 0.0 0.0 0.0 0.0 0.0 0.0 0.0 0.0 0.0 0.0 0.0 0.0 0.0 0.0 0.0 0.0 0.0 0.0 0.0 0.0 0.0 0.0 0.0 0.0 0.0 0.0 0.0 0.0 0.0 0.0 0.0 0.0 0.0 0.0 0.0 0.0 0.0 0.0 0.0 0.0 0.0 0.0 0.0 0.0 0.0 0.0 0.0 0.0 0.0 0.0 0.0 0.0 0.0 0.0 0.0 0.0 0.0 0.0 0.0 0.0 0.0 0.0 0.0 0.0 0.0 0.0 0.0 0.0 0.0 0.0 0.0 0.0 0.0 0.0 0.0
-0.8475999999999999 74.8742 0.4599 -176.602017 4.674254 -170.681959 5.537086 11.504242 -9.288573 1.421107 -11.733247 16.16554 -0.967855 12.635729 -3.008965 4.327161 -26.103062 34.392193 0.003788 -0.0 -0.003696 -0.001394 -0.0 0.001835 -148.435323 26.963285 153.322892 166.171882 25.114331 143.800912 -171.037613 -71.330849 95.349121 163.204121 -31.20108 140.901841 175.260513 -21.810993 88.353152 -17.192215 -47.660701 -4.926424 -26.087193 29.711277 18.990362 -172.149409 -23.720959 110.083108 -73.698661 61.039961 65.730256 -0.71834 11.522305 2.102603 -0.008534 -0.729362 -0.228325 -156.047556 -13.648616 173.472952 4.144129 11.923605 3.757308 -157.55388 48.069431 -149.59301 152.925494 10.60008 -158.515738 67.553652 -18.776487 18.597558 167.511909 -69.991124 70.621937 7.274793 15.016851 0.39699 170.24043 -7.924585 -89.944353 167.696898 -6.42174 -87.723235 -42.816533 -62.279687 -2.681417 177.320411 -42.969836 -107.682682 144.917654 30.116638 -132.385889 -6.085198 -8.152355 0.571767 145.09971 -1.456525 178.671243 -11.132611 10.489685 7.743208 -15.879883 55.529685 -12.300729 162.424785 59.173611 149.158931 -179.995918 75.74954 -0.002608 163.001434 35.071775 8.285614 17.728055 70.742065 -151.488619 73.335834 -45.410028 156.974511 -179.991188 75.750709 -0.008672 -163.645504 19.674103 -88.613126 -84.655988 -3.623512 -64.832907 146.796994 7.10845 176.044156
-1.2491999999999999 74.53229999999999 0.5 -176.841798 4.568224 -170.573577 5.220924 11.928098 2.38873 -0.564451 -12.00389 5.118175 9.753778 29.064787 142.142025 -21.93693 38.285048 -104.882365 0.005273 -0.0 -0.000601 -0.000845 0.0 -0.003065 -145.354335 -81.437231 -168.870419 -118.264334 -43.801951 -118.038713 -4.046121 65.205321 -87.18131 163.81739 -30.293026 141.181203 -174.995307 -12.646063 89.820804 -151.854453 5.370713 80.026929 11.490389 -20.434775 -4.935322 -125.155969 29.263616 98.826226 14.936613 -44.959468 -2.735884 -13.171027 35.819624 10.393626 -145.116623 -0.199055 -179.066899 9.295258 71.675971 2.088372 8.017707 25.13394 7.073991 -156.74441 43.974684 -149.087188 156.29546 -9.019506 -162.971382 52.498732 2.161613 37.251583 21.601142 48.145402 126.914758 -162.628071 -38.560455 -138.935208 10.897215 10.280474 -2.626354 147.273647 -52.866717 -112.647755 -171.281361 -64.922676 -111.167627 -59.976365 -58.905227 -8.518193 164.212747 -17.909452 -144.611999 -5.028259 -5.48425 0.28178 0.01059 -1.003817 0.316404 137.113366 63.937677 -151.240391 135.367445 -12.797381 132.756342 157.06199 43.130562 146.695131 -0.000564 -0.001824 0.000248 -17.39083 -39.437771 -74.370802 -54.605606 36.551003 107.122761 -75.294967 37.309647 -11.515317 0.014718 -1.8e-05 0.012277 28.292387 -52.72167 -143.486985 -63.807623 -77.458029 -161.634482 -51.105349 33.693584 -37.604607
-1.6059 74.2367 0.4287 -176.776214 4.714884 -170.396409 5.68842 12.049717 -1.442024 0.031335 -12.115558 9.771731 -5.401738 30.02616 -128.263447 33.345515 29.921533 151.409858 0.002362 0.0 0.002505 0.001943 -0.0 -0.002232 2.87946 -22.374596 -4.439185 -119.354713 -13.861135 -173.934692 -14.194964 40.647061 -87.372406 161.84064 -36.959917 139.115018 2.554772 -2.53841 -0.336567 -85.97875 23.724108 78.122771 -139.31692 3.644478 115.368435 175.111121 -48.869908 111.609067 3.053695 -9.274083 -1.513169 -3.359714 17.609122 3.367109 -145.120007 0.533375 -179.296571 10.497643 3.806667 -8.527304 25.601831 78.756455 11.026654 -24.801082 -39.975688 -24.812947 55.42416 66.71716 -58.247916 -130.366244 -0.511253 -116.476733 35.56312 79.648887 -158.705187 6.149621 18.326334 -0.251326 173.858372 -11.526315 -89.887667 6.045065 -51.840417 -4.779451 131.97023 13.88167 -110.513372 -176.875213 -45.042675 -112.703991 8.157197 20.350496 -5.449054 150.822605 26.683124 -136.538086 0.042835 5.527421 -1.740197 153.79903 20.356391 -168.908993 145.48465 13.06135 142.100086 159.30101 47.835851 146.759438 -5.6e-05 -0.000413 -0.000208 -18.202365 -40.810518 -123.649067 -63.480857 -13.02922 64.849946 156.930815 -10.869448 -4.481344 -179.999868 75.748247 -8.4e-05 -160.789084 20.593304 91.378869 84.360344 8.925946 -168.905092 174.321941 59.116808 -97.890362
-1.8854 73.9827 0.2474 -176.57901 4.783984 -170.026736 5.315983 7.247121 161.70444 -2.806515 6.944138 -152.375205 -8.811627 19.73417 -62.924377 33.455137 -6.818152 97.520029 -0.004 -0.0 0.003468 0.001292 -0.0 -0.001739 2.044039 -14.50741 -2.969014 53.291914 11.309983 -0.071121 12.185641 47.776237 67.041697 -10.824104 25.382777 0.976258 -7.853705 7.52772 1.708789 -115.07432 -7.764902 103.22656 90.706093 -75.650017 41.755896 -151.506022 -6.424679 115.645754 17.198212 -50.100029 -2.032543 -163.929458 -6.276385 143.422218 -0.035702 -2.488591 -0.783486 -118.215154 73.972612 132.117958 -162.335764 72.003453 -150.908873 -166.895528 65.023976 -146.543462 59.235115 67.269251 -62.103916 -132.67848 -3.029218 -118.657533 -169.04896 -72.502874 -2.533376 -170.499547 -15.823021 -144.087179 170.619115 -8.302692 -89.94932 -165.354502 -29.633103 -97.722049 161.34745 -35.304733 -122.704925 164.648453 -25.965385 -118.971333 -170.996688 -68.126962 -136.014125 -26.886423 -57.011133 -5.008864 0.053818 -3.22736 1.016547 156.031711 -18.494178 -174.039753 129.578602 -22.747484 127.206749 165.079623 63.547277 146.194007 -0.003523 -0.000246 -0.002463 -19.435616 -41.612402 -162.230917 -62.318137 -37.279039 -170.138677 -164.665601 -29.32771 113.206551 179.995692 75.748927 0.002855 -157.319587 22.136201 78.272391 89.769796 23.100633 162.070845 -135.703859 51.264641 -150.600957
-2.197 73.8456 -0.042499999999999996 -176.266548 4.8023 -169.594693 4.494076 7.920315 119.390124 -8.258809 2.679118 -109.491146 12.522804 23.105256 105.740326 -32.762723 21.823021 -68.100345 0.000899 0.0 0.00126 -0.00516 0.0 -0.001535 -153.565899 7.526025 159.305367 -32.552384 -22.073733 9.925983 -69.162669 38.69002 -51.856582 154.557277 -57.530895 131.866995 6.957426 -6.947021 -0.653453 -137.586135 -38.820722 122.085333 28.823042 -48.920268 -4.35584 -178.986761 -42.668912 106.007684 -165.599842 -22.382734 144.97266 -170.835314 -27.163844 143.857776 -145.117203 -0.026434 -179.118204 11.220059 13.778236 -7.377195 0.215393 0.561526 0.197551 -134.407563 -20.468316 -132.381713 -3.213955 -26.105405 5.123875 -73.897769 -1.474073 -9.227407 -155.690735 17.856188 3.626447 156.642034 55.430442 -131.650737 4.93081 4.788878 -0.957652 117.471972 -9.274697 -105.509204 152.704286 -19.674497 -121.542051 -9.673315 3.769303 9.326051 164.318993 -18.25626 -144.643249 173.576149 -34.551631 -143.412939 -0.003369 2.143642 -0.674431 9.863411 -83.069211 30.696142 94.063287 -48.659533 92.349165 147.924167 16.289369 143.58785 179.983132 75.750097 0.014022 162.846378 31.369109 -133.812647 -59.379847 -43.163732 45.374468 107.009543 28.53029 -2.715493 179.997208 75.750296 0.000477 -154.209828 22.766659 122.925846 89.924215 -34.010339 -14.769182 -89.459526 28.354263 -2.755786
-2.5693 73.7975 -0.4568 -175.89656 3.735437 -169.142112 7.623036 10.737856 -10.072325 1.128442 -11.88514 19.863362 12.306578 18.452124 80.250183 -33.67162 7.240348 -46.37807 -0.00536 -0.0 0.000354 0.000341 -0.0 -0.000214 -60.571831 67.434548 63.45626 62.734477 -29.148295 63.666405 -159.886117 -14.662939 61.256818 176.878745 -22.340567 143.514113 -16.069388 14.686414 4.478655 -107.286497 -3.102817 96.067592 -10.179038 14.533575 6.582641 67.168217 -55.460054 21.599315 121.723411 -80.995909 91.191499 -3.048837 16.281755 3.25611 0.003667 0.711571 0.22356 -156.622309 -30.670277 175.450669 -40.360775 -46.440488 -39.196613 -140.121503 -6.221332 -137.976285 141.910285 41.275845 -146.259029 -121.803615 -35.075877 -154.705816 2.357707 -1.721543 -136.611271 4.749257 -1.76855 2.179055 179.997875 -17.467233 -89.267332 46.920475 -14.220721 -4.364478 45.159614 39.316044 -35.391874 -6.555248 0.351932 2.438155 130.106991 46.733162 -119.381349 171.962574 -31.069115 -143.790225 145.106783 -1.03357 178.803218 -12.222129 40.97347 4.331499 -19.850789 68.377234 -13.08328 47.79085 -51.334069 47.076181 -179.986499 75.748583 -0.010074 160.640015 33.456816 36.003581 56.111037 52.342439 -164.037031 169.338201 -56.151366 -96.589517 -179.986499 75.748583 -0.010074 -151.63397 25.816516 46.616449 98.038651 51.929527 104.362855 -52.108071 14.873325 -170.254701
-3.0394 73.8163 -0.9726 -175.538253 1.388768 -168.804697 7.854218 10.153043 -4.260027 0.337181 -11.729381 13.228488 -7.217735 25.530056 -100.881411 37.88907 13.022892 129.017939 0.002372 -0.0 -0.001794 0.002372 -0.0 -0.001794 -158.175889 -26.328334 166.238656 153.613544 -12.407097 -171.649767 152.704456 11.748828 52.526615 -160.333113 31.171593 133.598735 -3.231513 3.157261 0.583016 -108.373047 3.025581 98.697616 11.084865 -19.676171 -4.822509 -163.491555 -19.836335 110.368436 -9.04377 22.139315 6.124931 25.081249 -54.815799 3.461257 -145.074435 5.536083 179.127631 -14.244721 -66.994125 -34.908163 0.856084 2.277792 0.788058 -161.25945 60.570973 -150.10388 155.314187 -73.087174 -179.498958 74.195973 -42.65725 91.024535 -175.616621 -35.4657 53.937769 12.772505 12.189159 0.646966 175.077285 -12.728431 -89.816047 55.896466 -7.203303 -11.153675 -154.545569 -71.48633 -98.253497 175.539937 -44.266104 -111.576632 161.412942 -8.97106 -143.579263 168.298152 -19.903799 -143.891489 0.013048 3.968436 -1.24745 154.854801 9.752847 -170.549464 34.651204 -43.863235 33.561517 163.531484 66.022775 148.681814 179.987016 75.750864 0.012481 160.184053 34.589214 29.562732 58.627915 45.481972 45.269082 39.008139 67.695472 -143.572675 -179.991442 75.749195 -0.007079 -149.451193 27.798225 -0.019817 33.481133 88.543656 59.080079 -10.410512 -22.464097 -69.027367
